<?xml version="1.0" encoding="UTF-8"?>
<svg width="174px" height="30px" viewBox="0 0 174 30" version="1.1" xmlns="http://www.w3.org/2000/svg" xmlns:xlink="http://www.w3.org/1999/xlink">
    <title>browserstack-logo-vector</title>
    <g id="Page-1" stroke="none" stroke-width="1" fill="none" fill-rule="evenodd">
        <g id="Artboard" fill-rule="nonzero">
            <g id="browserstack-logo-vector" transform="translate(0.000000, -0.000000)">
                <g id="Group-2">
                    <path d="M30,15 C30,23.2788462 23.2788462,30 15,30 C6.72115385,30 0,23.2788462 0,15 C0,6.72115385 6.72115385,0 15,0 C23.2788462,0 30,6.72115385 30,15" id="Path" fill="#ECB360"></path>
                    <path d="M25.9903846,13.5 C25.9903846,20.9423077 20.1634615,27 13.0096154,27 C5.82692308,27 0.0288461538,20.9711538 0.0288461538,13.5 C0.0288461538,6.02884615 5.85576923,0 13.0096154,0 C20.1923077,0 25.9903846,6.05769231 25.9903846,13.5" id="Path" fill="#D76835"></path>
                    <path d="M27,12 C27,18.6346154 21.8653846,24 15.5192308,24 C9.17307692,24 4.03846154,18.6346154 4.03846154,12 C4.03846154,5.36538462 9.17307692,0 15.5192308,0 C21.8653846,0 27,5.36538462 27,12" id="Path" fill="#D33A41"></path>
                    <path d="M25.9903846,13.0096154 C25.9903846,19.0673077 21.2884615,24 15.4903846,24 C9.69230769,24 4.99038462,19.0673077 4.99038462,13.0096154 C4.99038462,6.92307692 9.69230769,2.01923077 15.4903846,2.01923077 C21.2884615,2.01923077 25.9903846,6.92307692 25.9903846,13.0096154" id="Path" fill="#B6CB46"></path>
                    <path d="M25.0096154,13.9903846 C25.0096154,19.5 20.5384615,24 15,24 C9.49038462,24 5.01923077,19.5288462 5.01923077,13.9903846 C5.01923077,8.45192308 9.49038462,4.00961538 15,4.00961538 C20.5384615,4.00961538 25.0096154,8.48076923 25.0096154,13.9903846" id="Path" fill="#66AD4A"></path>
                    <path d="M21,12 C21,16.4134615 17.4230769,19.9903846 13.0096154,19.9903846 C8.59615385,19.9903846 5.01923077,16.4134615 5.01923077,12 C5.01923077,7.58653846 8.59615385,4.00961538 13.0096154,4.00961538 C17.4230769,4.00961538 21,7.58653846 21,12" id="Path" fill="#AED7DC"></path>
                    <path d="M22.0096154,10.9903846 C22.0096154,14.8557692 18.8653846,18 15,18 C11.1346154,18 7.99038462,14.8557692 7.99038462,10.9903846 C7.99038462,7.125 11.1346154,3.98076923 15,3.98076923 C18.8653846,3.98076923 22.0096154,7.125 22.0096154,10.9903846" id="Path" fill="#5BB1CF"></path>
                    <path d="M22.0096154,11.5096154 C22.0096154,15.0865385 19.3269231,18 16.0096154,18 C12.6923077,18 10.0096154,15.0865385 10.0096154,11.5096154 C10.0096154,7.93269231 12.6923077,5.01923077 16.0096154,5.01923077 C19.3269231,5.01923077 22.0096154,7.90384615 22.0096154,11.5096154" id="Path" fill="#25A8C3"></path>
                    <path d="M15,18 C12.2307692,18 10.0096154,15.5480769 10.0096154,12.4903846 C10.0096154,9.43269231 12.2596154,6.98076923 15,6.98076923 C17.7692308,6.98076923 19.9903846,9.43269231 19.9903846,12.4903846 C19.9903846,15.5480769 17.7692308,18 15,18 Z" id="Path" fill="#1B1A18"></path>
                    <path d="M17.7403846,10.9038462 C17.2788462,11.7115385 16.3269231,12.1730769 15.6634615,11.9423077 C14.9711538,11.7115385 14.8269231,10.875 15.2884615,10.0961538 C15.75,9.28846154 16.7019231,8.82692308 17.3653846,9.05769231 C18.0576923,9.28846154 18.2019231,10.125 17.7403846,10.9038462" id="Path" fill="#FFFFFE"></path>
                </g>
                <path d="M152.365385,20.625 C152.134615,19.9615385 152.019231,19.0961538 152.019231,17.9711538 C152.019231,16.8461538 152.134615,15.9807692 152.365385,15.3173077 C153.028846,13.3846154 154.788462,12.3461538 157.125,12.3461538 C158.855769,12.3461538 160.211538,12.9807692 161.105769,14.0192308 C161.163462,14.1057692 161.192308,14.25 161.076923,14.3365385 L159.576923,15.5769231 C159.461538,15.6634615 159.346154,15.6346154 159.230769,15.5192308 C158.653846,14.9134615 158.048077,14.5673077 157.096154,14.5673077 C156.057692,14.5673077 155.278846,15.0288462 154.932692,15.9807692 C154.730769,16.5288462 154.701923,17.1346154 154.701923,17.9711538 C154.701923,18.8076923 154.759615,19.4423077 154.932692,19.9903846 C155.278846,20.9134615 156.057692,21.375 157.096154,21.375 C158.048077,21.375 158.653846,21.0288462 159.230769,20.4230769 C159.317308,20.3076923 159.432692,20.3076923 159.576923,20.3942308 L161.076923,21.6346154 C161.192308,21.7211538 161.163462,21.8365385 161.105769,21.9519231 C160.211538,22.9615385 158.826923,23.5961538 157.125,23.5961538 C154.788462,23.5961538 153.028846,22.5288462 152.365385,20.625 M170.423077,23.3365385 C170.25,23.3365385 170.134615,23.2788462 170.048077,23.1057692 L167.134615,18.5769231 L165.576923,20.25 L165.576923,23.0769231 C165.576923,23.2211538 165.490385,23.3076923 165.346154,23.3076923 L163.153846,23.3076923 C163.009615,23.3076923 162.923077,23.2211538 162.923077,23.0769231 L162.923077,8.36538462 C162.923077,8.22115385 163.009615,8.13461538 163.153846,8.13461538 L165.346154,8.13461538 C165.490385,8.13461538 165.576923,8.22115385 165.576923,8.36538462 L165.576923,17.1346154 L169.528846,12.8076923 C169.673077,12.6634615 169.788462,12.5769231 169.990385,12.5769231 L172.413462,12.5769231 C172.557692,12.5769231 172.615385,12.7211538 172.5,12.8076923 L168.865385,16.7307692 L173.076923,23.1346154 C173.134615,23.2211538 173.105769,23.3653846 172.961538,23.3653846 L170.423077,23.3653846 L170.423077,23.3365385 Z M42.3173077,21.0288462 L45.7211538,21.0288462 C47.3076923,21.0288462 48.1730769,20.1923077 48.1730769,18.8942308 C48.1730769,17.6538462 47.2788462,16.7884615 45.7211538,16.7884615 L42.3173077,16.7884615 C42.2307692,16.7884615 42.1730769,16.8461538 42.1730769,16.9326923 L42.1730769,20.8846154 C42.1730769,20.9711538 42.2307692,21.0288462 42.3173077,21.0288462 Z M45.5769231,14.4807692 C47.0192308,14.4807692 47.8846154,13.6730769 47.8846154,12.4903846 C47.8846154,11.2788462 46.9903846,10.4711538 45.5769231,10.4711538 L42.3173077,10.4711538 C42.2307692,10.4711538 42.1730769,10.5288462 42.1730769,10.6153846 L42.1730769,14.3365385 C42.1730769,14.4230769 42.2307692,14.4807692 42.3173077,14.4807692 L45.5769231,14.4807692 Z M39.375,8.36538462 C39.375,8.22115385 39.4615385,8.13461538 39.6057692,8.13461538 L45.6634615,8.13461538 C49.0961538,8.13461538 50.7403846,9.75 50.7403846,12.1730769 C50.7403846,13.9038462 49.875,14.8846154 48.8653846,15.4038462 L48.8653846,15.4615385 C49.875,15.8076923 51.0288462,17.0192308 51.0288462,18.8942308 C51.0288462,21.9230769 49.0096154,23.3653846 45.4326923,23.3653846 L39.6057692,23.3653846 C39.4615385,23.3653846 39.375,23.2788462 39.375,23.1346154 L39.375,8.36538462 Z M52.9903846,23.3365385 C52.8461538,23.3365385 52.7596154,23.25 52.7596154,23.1057692 L52.7596154,12.7788462 C52.7596154,12.6346154 52.8461538,12.5480769 52.9903846,12.5480769 L55.1826923,12.5480769 C55.3269231,12.5480769 55.4134615,12.6346154 55.4134615,12.7788462 L55.4134615,13.7019231 L55.4423077,13.7019231 C55.9903846,12.8653846 56.9711538,12.3173077 58.4423077,12.3173077 C59.3365385,12.3173077 60.2596154,12.6634615 60.8653846,13.2115385 C60.9807692,13.3269231 61.0096154,13.4134615 60.9230769,13.5288462 L59.6538462,15.0288462 C59.5673077,15.1442308 59.4519231,15.1730769 59.3076923,15.0865385 C58.7884615,14.7692308 58.2403846,14.5673077 57.6057692,14.5673077 C56.1057692,14.5673077 55.4423077,15.5769231 55.4423077,17.3076923 L55.4423077,23.1346154 C55.4423077,23.2788462 55.3557692,23.3653846 55.2115385,23.3653846 L52.9903846,23.3653846 L52.9903846,23.3365385 Z M68.2211538,19.9615385 C68.4230769,19.4134615 68.4519231,18.8942308 68.4519231,17.9711538 C68.4519231,17.0480769 68.3942308,16.5576923 68.2211538,15.9807692 C67.875,15.0865385 67.1538462,14.5673077 66.0576923,14.5673077 C64.9903846,14.5673077 64.2115385,15.0865385 63.8942308,15.9807692 C63.6923077,16.5576923 63.6634615,17.0480769 63.6634615,17.9711538 C63.6634615,18.8942308 63.7211538,19.4134615 63.8942308,19.9615385 C64.2403846,20.8557692 64.9903846,21.375 66.0576923,21.375 C67.1538462,21.3461538 67.9038462,20.8557692 68.2211538,19.9615385 Z M61.3269231,20.625 C61.0673077,19.875 60.9519231,19.1538462 60.9519231,17.9711538 C60.9519231,16.7884615 61.0673077,16.0673077 61.3269231,15.3173077 C61.9615385,13.4423077 63.75,12.3461538 66.0865385,12.3461538 C68.3942308,12.3461538 70.1826923,13.4423077 70.8173077,15.3173077 C71.0769231,16.0673077 71.1923077,16.7884615 71.1923077,17.9711538 C71.1923077,19.1538462 71.0769231,19.875 70.8173077,20.625 C70.1826923,22.5 68.3942308,23.5961538 66.0865385,23.5961538 C63.75,23.5961538 61.9615385,22.5 61.3269231,20.625 Z M82.7884615,23.3365385 C82.6442308,23.3365385 82.5576923,23.25 82.5,23.1057692 L80.2788462,16.2115385 L80.2211538,16.2115385 L77.9711538,23.1057692 C77.9134615,23.25 77.8269231,23.3365385 77.6826923,23.3365385 L75.7211538,23.3365385 C75.5769231,23.3365385 75.4903846,23.25 75.4326923,23.1057692 L71.7980769,12.7788462 C71.7403846,12.6346154 71.8269231,12.5480769 71.9711538,12.5480769 L74.2788462,12.5480769 C74.4519231,12.5480769 74.5384615,12.6057692 74.5961538,12.7788462 L76.8173077,19.875 L76.875,19.875 L79.0673077,12.7788462 C79.125,12.6346154 79.2403846,12.5480769 79.3846154,12.5480769 L81.1153846,12.5480769 C81.2596154,12.5480769 81.375,12.6346154 81.4326923,12.7788462 L83.7692308,19.875 L83.8269231,19.875 L85.9326923,12.7788462 C85.9903846,12.6346154 86.0769231,12.5480769 86.25,12.5480769 L88.5576923,12.5480769 C88.7019231,12.5480769 88.7596154,12.6346154 88.7307692,12.7788462 L85.0961538,23.1057692 C85.0384615,23.25 84.9519231,23.3365385 84.8076923,23.3365385 L82.7884615,23.3365385 Z M89.1346154,21.8942308 C89.0480769,21.8076923 89.0480769,21.6634615 89.1346154,21.5769231 L90.4903846,20.25 C90.5769231,20.1634615 90.7211538,20.1634615 90.8365385,20.25 C91.6730769,20.9711538 93,21.4903846 94.2115385,21.4903846 C95.625,21.4903846 96.3461538,20.9423077 96.3461538,20.2211538 C96.3461538,19.5865385 95.9423077,19.1826923 94.4423077,19.0384615 L93.2019231,18.9230769 C90.8653846,18.6923077 89.6538462,17.5961538 89.6538462,15.75 C89.6538462,13.6730769 91.2403846,12.3461538 94.125,12.3461538 C95.9134615,12.3461538 97.4134615,12.8942308 98.4519231,13.6730769 C98.5673077,13.7596154 98.5673077,13.9038462 98.5096154,13.9903846 L97.3269231,15.3173077 C97.2403846,15.4326923 97.125,15.4326923 96.9807692,15.375 C96.2596154,14.9134615 95.1057692,14.4807692 93.9807692,14.4807692 C92.8269231,14.4807692 92.25,14.9423077 92.25,15.6057692 C92.25,16.2403846 92.6538462,16.6153846 94.125,16.7596154 L95.3653846,16.875 C97.7884615,17.1057692 98.9134615,18.2596154 98.9134615,20.0192308 C98.9134615,22.1538462 97.2403846,23.6538462 94.0961538,23.6538462 C91.7019231,23.5961538 90.0865385,22.7307692 89.1346154,21.8942308 M107.682692,15.8365385 C107.365385,14.9711538 106.5,14.4519231 105.432692,14.4519231 C104.336538,14.4519231 103.471154,14.9711538 103.153846,15.8365385 C103.067308,16.0961538 103.009615,16.3846154 103.009615,16.7596154 C103.009615,16.8461538 103.067308,16.9038462 103.153846,16.9038462 L107.682692,16.9038462 C107.769231,16.9038462 107.826923,16.8461538 107.826923,16.7596154 C107.826923,16.3846154 107.798077,16.0961538 107.682692,15.8365385 Z M100.730769,20.5961538 C100.5,19.9038462 100.326923,19.0673077 100.326923,17.9711538 C100.326923,16.8461538 100.471154,16.0096154 100.701923,15.3173077 C101.336538,13.4423077 103.125,12.3461538 105.403846,12.3461538 C107.769231,12.3461538 109.5,13.5 110.134615,15.3173077 C110.394231,16.0673077 110.509615,16.8173077 110.509615,18.5480769 C110.509615,18.6923077 110.423077,18.7788462 110.25,18.7788462 L103.153846,18.7788462 C103.067308,18.7788462 103.009615,18.8365385 103.009615,18.9230769 C103.009615,19.2403846 103.067308,19.5 103.182692,19.7596154 C103.557692,20.7980769 104.480769,21.4038462 105.75,21.4038462 C107.048077,21.4038462 107.884615,20.9711538 108.461538,20.3653846 C108.576923,20.25 108.692308,20.2211538 108.807692,20.3076923 L110.221154,21.4615385 C110.336538,21.5480769 110.336538,21.6634615 110.25,21.7788462 C109.269231,22.8461538 107.653846,23.625 105.519231,23.625 C103.096154,23.5961538 101.394231,22.4711538 100.730769,20.5961538 L100.730769,20.5961538 Z M112.528846,23.3365385 C112.384615,23.3365385 112.298077,23.25 112.298077,23.1057692 L112.298077,12.7788462 C112.298077,12.6346154 112.384615,12.5480769 112.528846,12.5480769 L114.721154,12.5480769 C114.865385,12.5480769 114.951923,12.6346154 114.951923,12.7788462 L114.951923,13.7019231 L114.980769,13.7019231 C115.528846,12.8653846 116.509615,12.3173077 117.980769,12.3173077 C118.875,12.3173077 119.798077,12.6634615 120.403846,13.2115385 C120.519231,13.3269231 120.548077,13.4134615 120.461538,13.5288462 L119.192308,15.0288462 C119.105769,15.1442308 118.990385,15.1730769 118.846154,15.0865385 C118.326923,14.7692308 117.778846,14.5673077 117.144231,14.5673077 C115.644231,14.5673077 114.980769,15.5769231 114.980769,17.3076923 L114.980769,23.1346154 C114.980769,23.2788462 114.894231,23.3653846 114.75,23.3653846 L112.528846,23.3653846 L112.528846,23.3365385 Z M120.836538,21.5769231 C120.75,21.4903846 120.692308,21.3461538 120.778846,21.2307692 L122.25,19.6153846 C122.336538,19.5 122.480769,19.5 122.596154,19.5865385 C123.634615,20.3653846 125.192308,21.2019231 127.009615,21.2019231 C128.942308,21.2019231 130.067308,20.2788462 130.067308,19.0096154 C130.067308,17.9134615 129.346154,17.1923077 127.096154,16.9038462 L126.230769,16.7884615 C123.115385,16.3846154 121.326923,14.9711538 121.326923,12.4615385 C121.326923,9.72115385 123.490385,7.875 126.807692,7.875 C128.826923,7.875 130.759615,8.48076923 132.057692,9.40384615 C132.173077,9.49038462 132.201923,9.57692308 132.115385,9.72115385 L130.961538,11.3653846 C130.875,11.4807692 130.759615,11.5096154 130.615385,11.4230769 C129.288462,10.6153846 128.076923,10.2403846 126.721154,10.2403846 C125.076923,10.2403846 124.153846,11.0769231 124.153846,12.2884615 C124.153846,13.3269231 124.932692,14.0480769 127.153846,14.3365385 L128.019231,14.4519231 C131.134615,14.8557692 132.865385,16.2403846 132.865385,18.8653846 C132.865385,21.5769231 130.788462,23.5673077 126.75,23.5673077 C124.413462,23.5961538 122.105769,22.7019231 120.836538,21.5769231 M137.884615,23.5384615 C135.576923,23.5384615 134.682692,22.5 134.682692,20.3942308 L134.682692,14.7115385 C134.682692,14.625 134.625,14.5673077 134.538462,14.5673077 L133.759615,14.5673077 C133.615385,14.5673077 133.528846,14.4807692 133.528846,14.3365385 L133.528846,12.8365385 C133.528846,12.6923077 133.615385,12.6057692 133.759615,12.6057692 L134.538462,12.6057692 C134.625,12.6057692 134.682692,12.5480769 134.682692,12.4615385 L134.682692,9.51923077 C134.682692,9.375 134.769231,9.28846154 134.913462,9.28846154 L137.105769,9.28846154 C137.25,9.28846154 137.336538,9.375 137.336538,9.51923077 L137.336538,12.4615385 C137.336538,12.5480769 137.394231,12.6057692 137.480769,12.6057692 L139.009615,12.6057692 C139.153846,12.6057692 139.240385,12.6923077 139.240385,12.8365385 L139.240385,14.3365385 C139.240385,14.4807692 139.153846,14.5673077 139.009615,14.5673077 L137.480769,14.5673077 C137.394231,14.5673077 137.336538,14.625 137.336538,14.7115385 L137.336538,20.3076923 C137.336538,21.0576923 137.682692,21.3173077 138.403846,21.3173077 L139.009615,21.3173077 C139.153846,21.3173077 139.240385,21.4038462 139.240385,21.5480769 L139.240385,23.3365385 C139.240385,23.4807692 139.153846,23.5673077 139.009615,23.5673077 L137.884615,23.5673077 L137.884615,23.5384615 Z M147.721154,19.7307692 L147.721154,18.8942308 C147.721154,18.8076923 147.663462,18.75 147.576923,18.75 L145.673077,18.75 C143.942308,18.75 143.192308,19.1826923 143.192308,20.1923077 C143.192308,21.0865385 143.884615,21.5192308 145.182692,21.5192308 C146.826923,21.5480769 147.721154,20.9423077 147.721154,19.7307692 Z M148.009615,23.3365385 C147.865385,23.3365385 147.778846,23.25 147.778846,23.1057692 L147.778846,22.3269231 L147.75,22.3269231 C147.201923,23.0769231 146.134615,23.5673077 144.490385,23.5673077 C142.384615,23.5673077 140.625,22.5288462 140.625,20.2788462 C140.625,17.9423077 142.384615,16.8461538 145.240385,16.8461538 L147.576923,16.8461538 C147.663462,16.8461538 147.721154,16.7884615 147.721154,16.7019231 L147.721154,16.1826923 C147.721154,14.9423077 147.086538,14.3942308 145.153846,14.3942308 C143.855769,14.3942308 143.076923,14.7403846 142.528846,15.1442308 C142.413462,15.2307692 142.269231,15.2019231 142.182692,15.0865385 L141.288462,13.6153846 C141.230769,13.5 141.230769,13.3846154 141.346154,13.3269231 C142.269231,12.6923077 143.538462,12.2884615 145.442308,12.2884615 C148.961538,12.2884615 150.230769,13.4134615 150.230769,16.0384615 L150.230769,23.0769231 C150.230769,23.2211538 150.144231,23.3076923 150,23.3076923 L148.009615,23.3076923 L148.009615,23.3365385 Z" id="Shape" fill="#183B56"></path>
            </g>
        </g>
    </g>
</svg>