<?xml version="1.0" encoding="UTF-8"?>
<svg width="208px" height="26px" viewBox="0 0 208 26" version="1.1" xmlns="http://www.w3.org/2000/svg" xmlns:xlink="http://www.w3.org/1999/xlink">
    <title>Artboard Copy</title>
    <g id="Artboard-Copy" stroke="none" stroke-width="1" fill="none" fill-rule="evenodd">
        <g id="housing-com-logo-vector" transform="translate(1.000000, 0.000000)">
            <path d="M25.9655629,23.2794702 C25.9655629,24.794702 24.7602649,26 23.2450331,26 L2.7205298,26 C1.2397351,26 7.10542736e-15,24.794702 7.10542736e-15,23.2794702 L7.10542736e-15,2.7205298 C7.10542736e-15,1.2397351 1.20529801,0 2.7205298,0 L23.2794702,0 C24.7602649,0 26,1.20529801 26,2.7205298 L26,23.2794702 L25.9655629,23.2794702 Z" id="Path" fill="#FFDC00"></path>
            <path d="M12.9827815,7.50728477 L4.27019868,16.2198675 L6.30198675,18.2516556 C6.54304636,18.4927152 6.88741722,18.5271523 7.16291391,18.2516556 C7.40397351,18.010596 12.6039735,12.7417219 12.6039735,12.7417219 C12.8794702,12.4317881 12.9827815,12.2251656 12.9827815,12.1562914 C13.0172185,12.2251656 13.0860927,12.4662252 13.3960265,12.7417219 C13.3960265,12.7417219 18.5960265,18.010596 18.802649,18.2516556 C19.0781457,18.5271523 19.4225166,18.4927152 19.6980132,18.2516556 L21.7298013,16.2198675 L12.9827815,7.50728477 Z" id="Path" fill="#5E23DC"></path>
            <path d="M165.539073,21.8331126 L164.023841,21.8331126 C163.817219,21.8331126 163.645033,22.005298 163.645033,22.2119205 L163.645033,23.7271523 C163.645033,23.9337748 163.817219,24.1059603 164.023841,24.1059603 L165.539073,24.1059603 C165.745695,24.1059603 165.917881,23.9337748 165.917881,23.7271523 L165.917881,22.2119205 C165.883444,22.005298 165.711258,21.8331126 165.539073,21.8331126" id="Path" fill="#000000" fill-rule="nonzero"></path>
            <path d="M38.6728477,15.7377483 C38.6728477,16.4264901 39.0860927,16.8741722 39.7748344,16.8741722 L45.215894,16.8741722 C45.4225166,16.8741722 45.6635762,16.8397351 45.8701987,16.805298 C45.8357616,16.9774834 45.8357616,17.218543 45.8357616,17.4251656 L45.8357616,23.0039735 C45.8357616,23.6927152 46.2490066,24.1059603 46.9377483,24.1059603 L50.3470199,24.1059603 L50.3470199,12.5006623 L38.7417219,12.5006623 L38.7417219,15.7377483 L38.6728477,15.7377483 Z" id="Path" fill="#183B56" fill-rule="nonzero"></path>
            <path d="M32.7152318,3.03046358 L32.7152318,23.0384106 C32.7152318,23.7271523 33.1284768,24.1059603 33.8172185,24.1059603 L37.192053,24.1059603 L37.192053,1.92847682 L33.8172185,1.92847682 C33.0940397,1.92847682 32.7152318,2.30728477 32.7152318,3.03046358" id="Path" fill="#183B56" fill-rule="nonzero"></path>
            <path d="M46.9033113,1.92847682 C46.2145695,1.92847682 45.8013245,2.34172185 45.8013245,3.03046358 L45.8013245,9.91788079 C45.8013245,10.6066225 46.2145695,11.0198675 46.9033113,11.0198675 L50.3125828,11.0198675 L50.3125828,1.96291391 L46.9033113,1.96291391 L46.9033113,1.92847682 Z" id="Path" fill="#183B56" fill-rule="nonzero"></path>
            <path d="M58.7496689,9.95231788 C58.7496689,7.19735099 60.1271523,5.78543046 62.8821192,5.78543046 C65.602649,5.78543046 67.0145695,7.19735099 67.0145695,9.95231788 L67.0145695,16.0476821 C67.0145695,18.802649 65.6370861,20.2145695 62.8821192,20.2145695 C60.1615894,20.2145695 58.7496689,18.802649 58.7496689,16.0476821 L58.7496689,9.95231788 Z M62.8821192,1.58410596 C57.5099338,1.58410596 54.2728477,4.71788079 54.2728477,9.95231788 L54.2728477,16.1509934 C54.2728477,21.3509934 57.4754967,24.415894 62.8821192,24.415894 C68.1854305,24.415894 71.4913907,21.213245 71.4913907,16.0476821 L71.4913907,9.84900662 C71.4569536,4.75231788 68.1854305,1.58410596 62.8821192,1.58410596" id="Shape" fill="#183B56" fill-rule="nonzero"></path>
            <path d="M88.6066225,1.92847682 C87.9178808,1.92847682 87.4701987,2.34172185 87.4701987,3.03046358 L87.4701987,16.1854305 C87.4701987,18.8715232 86.1615894,20.2490066 83.613245,20.2490066 C81.0649007,20.2490066 79.7907285,18.8715232 79.7907285,16.1854305 L79.7907285,1.92847682 L76.381457,1.92847682 C75.6927152,1.92847682 75.2794702,2.34172185 75.2794702,3.03046358 L75.2794702,16.3576159 C75.2794702,21.4198675 78.3788079,24.415894 83.5788079,24.415894 C88.7099338,24.415894 91.9125828,21.3165563 91.9125828,16.3576159 L91.9125828,1.92847682 L88.6066225,1.92847682 Z" id="Path" fill="#183B56" fill-rule="nonzero"></path>
            <path d="M105.033113,11.0543046 C101.313907,9.67682119 100.280795,9.12582781 100.280795,7.78278146 C100.280795,6.4397351 101.382781,5.64768212 103.207947,5.64768212 C104.757616,5.64768212 105.756291,6.23311258 106.376159,7.61059603 C106.582781,8.05827815 106.892715,8.26490066 107.271523,8.26490066 C107.443709,8.26490066 107.615894,8.23046358 107.822517,8.1615894 L110.680795,7.12847682 L110.611921,6.88741722 C109.44106,3.34039735 107.030464,1.58410596 103.276821,1.58410596 C98.8344371,1.58410596 95.8384106,4.06357616 95.8384106,7.78278146 C95.8384106,11.6397351 98.3178808,13.2927152 102.278146,14.7390728 C105.411921,15.8754967 106.445033,16.4953642 106.445033,17.9417219 C106.445033,19.3880795 105.205298,20.3178808 103.276821,20.3178808 C101.210596,20.3178808 100.005298,19.5602649 99.5576159,18.010596 C99.3509934,17.4251656 98.9377483,17.2874172 98.6278146,17.2874172 C98.4556291,17.2874172 98.2834437,17.3218543 98.1112583,17.3907285 L95.2874172,18.389404 L95.3562914,18.6304636 C96.3205298,22.5218543 98.8688742,24.415894 103.207947,24.415894 C107.856954,24.415894 110.956291,21.7642384 110.956291,17.8384106 C110.921854,14.6357616 109.096689,12.5695364 105.033113,11.0543046" id="Path" fill="#183B56" fill-rule="nonzero"></path>
            <path d="M115.605298,1.92847682 C114.916556,1.92847682 114.468874,2.34172185 114.468874,3.03046358 L114.468874,23.0384106 C114.468874,23.7271523 114.882119,24.1403974 115.605298,24.1403974 L118.980132,24.1403974 L118.980132,1.96291391 L115.605298,1.96291391 L115.605298,1.92847682 Z" id="Path" fill="#183B56" fill-rule="nonzero"></path>
            <path d="M137.851656,1.92847682 C137.162914,1.92847682 136.749669,2.34172185 136.749669,3.03046358 L136.749669,13.7748344 C136.749669,15.186755 136.784106,16.5642384 136.887417,17.9761589 C136.301987,16.392053 135.647682,14.7735099 134.95894,13.2927152 L129.517881,1.96291391 L124.903311,1.96291391 C124.180132,1.96291391 123.73245,2.41059603 123.73245,3.13377483 L123.73245,23.0384106 C123.73245,23.7271523 124.145695,24.1403974 124.868874,24.1403974 L128.10596,24.1403974 L128.10596,12.2596026 C128.10596,10.7788079 128.071523,9.36688742 127.968212,7.95496689 C128.553642,9.47019868 129.242384,11.192053 130.034437,12.810596 L135.165563,23.1761589 C135.509934,23.8649007 135.923179,24.1403974 136.646358,24.1403974 L141.088742,24.1403974 L141.088742,1.96291391 L137.851656,1.96291391 L137.851656,1.92847682 Z" id="Path" fill="#183B56" fill-rule="nonzero"></path>
            <path d="M153.486093,11.5708609 L153.451656,14.4291391 C153.451656,15.1178808 153.864901,15.5311258 154.553642,15.5311258 L156.929801,15.5311258 C157.170861,15.5311258 157.377483,15.5311258 157.549669,15.4966887 C157.515232,15.6688742 157.515232,15.8410596 157.515232,16.013245 L157.515232,17.0119205 C157.515232,19.0437086 156.103311,20.2145695 153.658278,20.2145695 C150.937748,20.2145695 149.525828,18.802649 149.525828,15.9788079 L149.525828,9.98675497 C149.525828,7.12847682 150.868874,5.75099338 153.658278,5.75099338 C155.517881,5.75099338 156.688742,6.54304636 157.274172,8.1615894 C157.515232,8.78145695 158.031788,8.98807947 158.686093,8.74701987 L161.716556,7.71390728 L161.647682,7.47284768 C160.442384,3.4781457 157.859603,1.54966887 153.692715,1.54966887 L153.623841,1.54966887 C148.286093,1.54966887 145.083444,4.64900662 145.083444,9.81456954 L145.083444,16.0821192 C145.083444,21.2821192 148.286093,24.3470199 153.692715,24.3470199 C158.513907,24.3470199 161.888742,21.2476821 161.888742,16.7708609 L161.888742,11.5019868 L153.486093,11.5019868 L153.486093,11.5708609 Z" id="Path" fill="#183B56" fill-rule="nonzero"></path>
            <path d="M185.856954,10.2966887 C182.550993,10.2966887 180.553642,12.2251656 180.553642,15.4622517 L180.553642,19.2503311 C180.553642,22.4529801 182.516556,24.3470199 185.856954,24.3470199 C189.162914,24.3470199 191.160265,22.418543 191.160265,19.181457 L191.160265,15.3933775 C191.160265,12.2251656 189.162914,10.2966887 185.856954,10.2966887 M188.646358,15.4278146 L188.646358,19.181457 C188.646358,21.0410596 187.682119,22.005298 185.856954,22.005298 C184.031788,22.005298 183.06755,21.0410596 183.06755,19.181457 L183.06755,15.4278146 C183.06755,13.5682119 184.031788,12.6039735 185.856954,12.6039735 C187.682119,12.6039735 188.646358,13.602649 188.646358,15.4278146" id="Shape" fill="#183B56" fill-rule="nonzero"></path>
            <path d="M173.941722,12.7761589 C175.181457,12.7761589 176.007947,13.3271523 176.386755,14.394702 C176.524503,14.7046358 176.765563,14.807947 177.109934,14.7046358 L178.866225,14.1192053 L178.762914,13.8092715 C177.970861,11.5708609 176.386755,10.5033113 173.941722,10.5033113 L173.838411,10.5033113 C170.601325,10.5033113 168.638411,12.397351 168.638411,15.6 L168.638411,19.181457 C168.638411,22.384106 170.566887,24.2781457 173.838411,24.2781457 L173.941722,24.2781457 C176.386755,24.2781457 177.970861,23.1761589 178.762914,20.9721854 L178.866225,20.6622517 L177.109934,20.0768212 C176.765563,19.9735099 176.524503,20.0423841 176.386755,20.386755 C176.007947,21.4543046 175.181457,22.005298 173.941722,22.005298 C172.082119,22.005298 171.152318,21.0410596 171.152318,19.1470199 L171.152318,15.7377483 C171.152318,13.7403974 172.082119,12.7761589 173.941722,12.7761589" id="Path" fill="#183B56" fill-rule="nonzero"></path>
            <path d="M204.521854,10.6066225 C204.246358,10.6066225 204.005298,10.7788079 203.901987,11.0198675 L200.07947,20.6622517 L196.084768,10.6066225 L194.225166,10.6066225 C193.846358,10.6066225 193.570861,10.9165563 193.570861,11.2609272 L193.570861,23.4172185 C193.570861,23.7960265 193.880795,24.0715232 194.225166,24.0715232 L195.94702,24.0715232 L195.94702,16.7019868 L198.633113,23.6238411 C198.736424,23.8993377 198.977483,24.0715232 199.25298,24.0715232 L201.422517,24.0715232 L204.280795,16.7019868 L204.280795,23.3827815 C204.280795,23.7615894 204.590728,24.0370861 204.935099,24.0370861 L206.656954,24.0370861 L206.656954,10.5377483 L204.521854,10.5377483 L204.521854,10.6066225 Z" id="Path" fill="#183B56" fill-rule="nonzero"></path>
        </g>
    </g>
</svg>