<?xml version="1.0" encoding="UTF-8"?>
<svg width="87px" height="30px" viewBox="0 0 87 30" version="1.1" xmlns="http://www.w3.org/2000/svg" xmlns:xlink="http://www.w3.org/1999/xlink">
    <title>Artboard Copy 3</title>
    <g id="Artboard-Copy-3" stroke="none" stroke-width="1" fill="none" fill-rule="evenodd">
        <g id="Oyo_Rooms-Logo.wine" transform="translate(0.000000, 0.000000)" fill="#EE2E24" fill-rule="nonzero">
            <path d="M71.125136,30 C79.3416757,30 86.0272035,23.2704026 86.0272035,15 C86.0272035,6.72470076 79.3416757,0 71.125136,0 C62.9069641,0 56.2230686,6.72470076 56.2230686,15 C56.2230686,23.2704026 62.9069641,30 71.125136,30 Z M71.125136,9.65125136 C74.0533188,9.65125136 76.4379761,12.0505985 76.4379761,14.9983678 C76.4379761,17.9461371 74.0516866,20.3422198 71.1235038,20.3422198 C68.1936888,20.3422198 65.812296,17.9461371 65.812296,14.9967356 C65.812296,12.0457018 68.195321,9.64798694 71.1235038,9.64798694 L71.125136,9.65125136 Z M14.9020675,30 C23.1186072,30 29.8041349,23.2704026 29.8041349,15 C29.8041349,6.72470076 23.1186072,0 14.9020675,0 C6.68715996,0 0,6.72470076 0,15 C0,23.2704026 6.68715996,30 14.9020675,30 Z M14.9020675,9.65125136 C17.8318825,9.65125136 20.2149075,12.0505985 20.2149075,14.9983678 C20.2149075,17.9461371 17.8318825,20.3422198 14.9020675,20.3422198 C11.9738847,20.3422198 9.59249184,17.9461371 9.59249184,14.9967356 C9.59249184,12.0457018 11.9755169,9.64798694 14.9020675,9.64798694 L14.9020675,9.65125136 Z M43.0054407,9.31338411 L38.4303591,0.195865071 L27.7181719,0.195865071 L37.7236126,20.1414581 L37.7236126,29.531556 L48.288901,29.531556 L48.288901,20.1414581 L58.2943417,0.195865071 L47.5772579,0.195865071 L43.0070729,9.31338411 L43.0054407,9.31338411 Z" id="Shape"></path>
        </g>
    </g>
</svg>