<?xml version="1.0" encoding="UTF-8"?>
<svg width="140px" height="30px" viewBox="0 0 140 30" version="1.1" xmlns="http://www.w3.org/2000/svg" xmlns:xlink="http://www.w3.org/1999/xlink">
    <title>bigfm-original</title>
    <g id="bigfm-original" stroke="none" stroke-width="1" fill="none" fill-rule="evenodd">
        <g id="g3061" transform="translate(70.092817, 15.000000) scale(1, -1) translate(-70.092817, -15.000000) translate(-0.000000, -0.000000)" fill-rule="nonzero">
            <g id="g3067" transform="translate(85.909068, 0.000000)" fill="#29559B">
                <path d="M13.9879206,26.6367987 L17.7657858,26.6367987 L17.7657858,2.47567828 C17.7657858,0.336014662 16.2577406,0 15.7554034,0 C14.9295445,0 14.4313417,0.760892707 14.1491646,1.18715924 L3.7644282,18.9403967 L3.7644282,0.36517296 L0,0.36517296 L0,24.9206246 C0,26.0008701 0.679085483,27.3227129 2.07446661,27.3227129 C3.0708721,27.3227129 3.50292344,26.739547 3.7778652,26.3368848 L13.9879206,9.09183475 L13.9879206,26.6367987 Z" id="path3069"></path>
            </g>
            <g id="g3071" transform="translate(0.000000, 0.362396)" fill="#29559B">
                <path d="M3.70241126,21.5924133 L3.70241126,14.9679259 L8.23791674,14.9679259 C10.4457198,14.9679259 11.5258481,15.6260703 11.5258481,18.3003027 C11.5258481,21.0078589 10.4457198,21.5924133 8.23791674,21.5924133 L3.70241126,21.5924133 Z M9.12165812,26.2744027 C13.2891964,26.2744027 15.2758057,23.8986957 15.2758057,18.3697272 C15.2758057,14.3070045 14.0034248,11.7105275 11.7212015,10.9787931 L16.1099335,0 L11.9423952,0 L7.96090774,10.6011238 L3.70241126,10.6011238 L3.70241126,0 L0,0 L0,26.2744027 L9.12165812,26.2744027 L9.12165812,26.2744027 Z" id="path3073"></path>
            </g>
            <polygon id="path3075" fill="#29559B" points="53.1165781 26.6369375 56.9885023 26.6369375 56.9885023 0.362534828 53.1165781 0.362534828"></polygon>
            <g id="g3077" transform="translate(105.748184, 0.362396)" fill="#29559B">
                <path d="M3.98148749,12.4478159 C3.98148749,6.55228592 5.16497741,4.57785265 8.22964781,4.57785265 L15.6282686,4.57785265 L15.6282686,0 L8.06013485,0 C5.96086146,0 4.34428658,0.258259203 2.65639222,2.30905944 C0.869270762,4.46677343 0,7.91022947 0,12.6699744 C0,21.9700827 2.58403913,26.2896761 8.15522749,26.2896761 L15.6282686,26.2896761 L15.6282686,21.7854134 L8.22964781,21.7854134 C5.16497741,21.7854134 3.98148749,18.9653896 3.98148749,12.4478159" id="path3079"></path>
            </g>
            <g id="g3081" transform="translate(58.110182, 0.361285)" fill="#29559B">
                <path d="M13.6323568,24.0361563 C13.4049614,24.6637539 13.325373,24.6873583 13.1775659,24.6873583 C13.0287253,24.6873583 12.9429352,24.6637539 12.7186406,24.0361563 L4.00629426,0 L0,0 L9.34698633,25.7148411 C10.3444254,28.4543326 11.5134447,29.6387148 13.1775659,29.6387148 C14.8385863,29.6387148 16.0034711,28.4487786 16.998843,25.7148411 L26.3437621,0 L22.3529721,0 L13.6323568,24.0361563 Z" id="path3083"></path>
            </g>
            <g id="g3085" transform="translate(65.373606, 0.361979)" fill="#D72729">
                <polygon id="path3087" points="5.9040126 16.5799632 0 0 3.31583901 0 8.50252235 0 11.8162941 0"></polygon>
            </g>
            <g id="g3089" transform="translate(36.575007, 0.358508)" fill="#29559B">
                <path d="M14.6515019,4.57924114 L4.82181701,4.58062963 L3.69310872,4.58062963 L3.69310872,6.09686109 L3.69310872,26.2785682 L0,26.2785682 L0,4.32237043 C0,1.9258361 1.47393592,-6.16613578e-16 3.23418337,-6.16613578e-16 L12.7031364,-6.16613578e-16 L14.6515019,4.57924114 Z" id="path3091"></path>
            </g>
            <g id="g3093" transform="translate(16.351696, 0.118994)" fill="#29559B">
                <path d="M4.07658013,15.2109117 C4.56444671,19.5082893 6.24510576,22.0978238 9.36145695,22.0978238 C13.1785996,22.0978238 14.2711313,17.9809499 14.2814674,15.2109117 L4.07658013,15.2109117 Z M9.18780952,26.878396 C3.09361164,26.8672881 0.0165378504,20.9481538 0,13.365608 C0.0144706191,5.79139321 3.67450364,0.0138849034 9.77490321,0 C13.6840376,0 16.4148502,2.32572132 17.6303822,3.8530607 L15.8628994,7.74222214 C15.0556456,6.70779684 13.6034156,4.72780961 9.87619755,4.72780961 C7.1391833,4.72780961 4.08898352,7.38538012 4.08898352,10.5858504 L4.08174821,10.8441096 L17.9342652,10.8441096 L17.9383996,10.8746563 C19.0143935,21.3438735 15.5114701,26.878396 9.18780952,26.878396" id="path3095"></path>
            </g>
            <g id="g3097" transform="translate(122.058122, 0.118994)" fill="#29559B">
                <path d="M4.07347928,15.2109117 C4.56237948,19.5082893 6.2409713,22.0978238 9.35732249,22.0978238 C13.1754987,22.0978238 14.2680304,17.9809499 14.2783666,15.2109117 L4.07347928,15.2109117 Z M9.18574229,26.878396 C3.08947718,26.8672881 0.0144706191,20.9481538 0,13.365608 C0.0144706191,5.79139321 3.67036918,0.0138849034 9.77283598,0 C13.683004,0 16.4127829,2.32572132 17.6283149,3.8530607 L15.8577313,7.74222214 C15.0515111,6.70779684 13.6003147,4.72780961 9.8730967,4.72780961 C7.13608245,4.72780961 4.08691628,7.38538012 4.08691628,10.5858504 L4.07761374,10.8441096 L17.9301307,10.8441096 L17.9342652,10.8746563 C19.0123263,21.3438735 15.5094028,26.878396 9.18574229,26.878396" id="path3099"></path>
            </g>
        </g>
    </g>
</svg>