<?xml version="1.0" encoding="UTF-8"?>
<svg width="139px" height="30px" viewBox="0 0 139 30" version="1.1" xmlns="http://www.w3.org/2000/svg" xmlns:xlink="http://www.w3.org/1999/xlink">
    <title>Artboard Copy 4</title>
    <g id="Artboard-Copy-4" stroke="none" stroke-width="1" fill="none" fill-rule="evenodd">
        <g id="totango-logo-freelogovectors.net" transform="translate(0.000000, 0.000000)">
            <path d="M0,14.9999907 C0,17.0311194 1.64721613,18.6783356 3.6783448,18.6783356 C5.70984352,18.6783356 7.35613455,17.0311194 7.35613455,14.9999907 C7.35613455,12.968492 5.70984352,11.3216459 3.6783448,11.3216459 C1.64721613,11.3216459 0,12.968492 0,14.9999907" id="Fill-1" fill="#73C05C"></path>
            <path d="M7.89588785,5.46569364 C7.89588785,7.49719235 9.54273394,9.14403844 11.5742327,9.14403844 C13.6057314,9.14403844 15.2520224,7.49719235 15.2520224,5.46569364 C15.2520224,3.43456496 13.6057314,1.78734883 11.5742327,1.78734883 C9.54273394,1.78734883 7.89588785,3.43456496 7.89588785,5.46569364" id="Fill-3" fill="#40AD8F"></path>
            <path d="M11.593271,24.535213 C11.593271,26.5665266 13.2403021,28.2139278 15.2716158,28.2139278 C17.3031145,28.2139278 18.9494056,26.5665266 18.9494056,24.535213 C18.9494056,22.5040843 17.3031145,20.8568681 15.2716158,20.8568681 C13.2403021,20.8568681 11.593271,22.5040843 11.593271,24.535213" id="Fill-5" fill="#73C05C"></path>
            <path d="M19.4624052,14.9335137 C19.4624052,16.9646424 21.1096214,18.6118585 23.1407501,18.6118585 C25.1722488,18.6118585 26.8185398,16.9646424 26.8185398,14.9335137 C26.8185398,12.9023851 25.1722488,11.2551689 23.1407501,11.2551689 C21.1096214,11.2551689 19.4624052,12.9023851 19.4624052,14.9335137" id="Fill-7" fill="#40AD8F"></path>
            <path d="M0.266685086,6.31679539 C0.266685086,7.75179575 1.42970885,8.91500454 2.86489423,8.91500454 C4.2998946,8.91500454 5.4632884,7.75179575 5.4632884,6.31679539 C5.4632884,4.88179502 4.2998946,3.71858624 2.86489423,3.71858624 C1.42970885,3.71858624 0.266685086,4.88179502 0.266685086,6.31679539" id="Fill-9" fill="#40AD8F"></path>
            <path d="M21.3946233,23.6829271 C21.3946233,25.1179275 22.5580171,26.2811362 23.9928324,26.2811362 C25.4278328,26.2811362 26.5912266,25.1179275 26.5912266,23.6829271 C26.5912266,22.2479267 25.4278328,21.0845329 23.9928324,21.0845329 C22.5580171,21.0845329 21.3946233,22.2479267 21.3946233,23.6829271" id="Fill-11" fill="#73C05C"></path>
            <path d="M0.310053328,25.5640061 C0.310053328,28.0138307 2.29603759,30 4.74586222,30 C7.19550184,30 9.18185614,28.0138307 9.18185614,25.5640061 C9.18185614,23.1141815 7.19550184,21.1280122 4.74586222,21.1280122 C2.29603759,21.1280122 0.310053328,23.1141815 0.310053328,25.5640061" id="Fill-13" fill="#73C05C"></path>
            <path d="M17.6760925,4.4358089 C17.6760925,6.88563353 19.6620768,8.87180281 22.1119014,8.87180281 C24.561726,8.87180281 26.5478953,6.88563353 26.5478953,4.4358089 C26.5478953,1.98598426 24.561726,0 22.1119014,0 C19.6620768,0 17.6760925,1.98598426 17.6760925,4.4358089" id="Fill-15" fill="#40AD8F"></path>
            <path d="M46.9492489,7.83281518 C47.0807968,8.28832974 47.0807968,8.75235513 46.9492489,9.22267113 L42.2298073,9.22267113 L42.2298073,22.1670923 C41.6714227,22.3289831 41.1193287,22.3289831 40.5761155,22.1670923 L40.5761155,9.22267113 L35.8566739,9.22267113 C35.7240159,8.75235513 35.7240159,8.28832974 35.8566739,7.83281518 L46.9492489,7.83281518 Z" id="Fill-17" fill="#27574D"></path>
            <path d="M52.2070007,10.6337302 C51.0967071,11.7954588 50.5423929,13.2504411 50.5423929,14.9999722 C50.5423929,16.7498734 51.0967071,18.2046707 52.2070007,19.3660293 C53.3167393,20.527943 54.7097405,21.1081597 56.3854494,21.1081597 C58.0611583,21.1081597 59.4508293,20.527943 60.5539072,19.3660293 C61.656615,18.2046707 62.2075989,16.7498734 62.2075989,14.9999722 C62.2075989,13.2504411 61.656615,11.7954588 60.5539072,10.6337302 C59.4508293,9.47237156 58.0611583,8.89104469 56.3854494,8.89104469 C54.7097405,8.89104469 53.3167393,9.47237156 52.2070007,10.6337302 M61.7665158,9.6742263 C63.1780189,11.122733 63.8834929,12.8974266 63.8834929,14.9999722 C63.8834929,17.1027029 63.1780189,18.8773965 61.7665158,20.3259032 C60.3551977,21.7734848 58.5607072,22.4980157 56.3854494,22.4980157 C54.1955752,22.4980157 52.394054,21.7734848 50.982736,20.3259032 C49.571973,18.8773965 48.8657589,17.1027029 48.8657589,14.9999722 C48.8657589,12.8974266 49.571973,11.122733 50.982736,9.6742263 C52.394054,8.22571961 54.1955752,7.50211383 56.3854494,7.50211383 C58.5607072,7.50211383 60.3551977,8.22571961 61.7665158,9.6742263" id="Fill-19" fill="#27574D"></path>
            <path d="M76.8923559,7.83281518 C77.0240887,8.28832974 77.0240887,8.75235513 76.8923559,9.22267113 L72.1732843,9.22267113 L72.1732843,22.1670923 C71.6147146,22.3289831 71.0626206,22.3289831 70.5194075,22.1670923 L70.5194075,9.22267113 L65.7997808,9.22267113 C65.6676779,8.75235513 65.6676779,8.28832974 65.7997808,7.83281518 L76.8923559,7.83281518 Z" id="Fill-21" fill="#27574D"></path>
            <path d="M85.8883243,16.7637313 L83.0436711,9.94969975 L80.221035,16.7637313 L85.8883243,16.7637313 Z M89.7916511,22.1668148 C89.21791,22.3285206 88.6449089,22.3285206 88.0715379,22.1668148 L86.4176611,18.1756044 L79.7139003,18.1756044 L78.0372663,22.1668148 C77.8176499,22.2256505 77.5342021,22.2550684 77.1885883,22.2550684 C76.8429745,22.2550684 76.5604519,22.2256505 76.3399103,22.1668148 L82.3600292,7.83272267 C82.8303452,7.68600332 83.3010312,7.68600332 83.7715323,7.83272267 L89.7916511,22.1668148 Z" id="Fill-23" fill="#27574D"></path>
            <path d="M104.498906,22.1668333 C104.058008,22.2994913 103.609154,22.2994913 103.15364,22.1668333 L94.0899731,10.5893258 L94.0899731,22.1668333 C93.5314034,22.3285391 92.9802345,22.3285391 92.4360963,22.1668333 L92.4360963,7.83274117 C92.8916108,7.7000832 93.3400947,7.7000832 93.7811779,7.83274117 L102.845029,19.4102486 L102.845029,7.83274117 C103.403414,7.67066532 103.954768,7.67066532 104.498906,7.83274117 L104.498906,22.1668333 Z" id="Fill-25" fill="#27574D"></path>
            <path d="M118.896885,15.3086934 C119.426222,15.1760355 119.962774,15.1760355 120.506358,15.3086934 L120.506358,21.1743222 C119.91837,21.571371 119.165161,21.8916374 118.245621,22.1338261 C117.326822,22.3763848 116.389705,22.4979417 115.434641,22.4979417 C113.170205,22.4979417 111.321689,21.7734108 109.888354,20.3256442 C108.454834,18.8775075 107.738074,17.1017038 107.738074,15.0000833 C107.738074,12.8971676 108.454834,11.122659 109.888354,9.67433731 C111.321689,8.22583062 113.170205,7.50222484 115.434641,7.50222484 C117.31609,7.50222484 118.896885,7.94330799 120.175545,8.82547428 C120.248997,8.95720716 120.285631,9.22992384 120.285631,9.64084904 C120.285631,10.0526993 120.248997,10.3098745 120.175545,10.4131146 C118.79346,9.39847533 117.242823,8.89097069 115.52308,8.89097069 C113.758007,8.89097069 112.29877,9.47211253 111.145737,10.6338412 C109.991409,11.7944597 109.414338,13.2503671 109.414338,15.0000833 C109.414338,16.7636758 109.991409,18.2264288 111.145737,19.3881575 C112.29877,20.5498861 113.758007,21.1308429 115.52308,21.1308429 C116.786754,21.1308429 117.912219,20.8507255 118.896885,20.2921559 L118.896885,15.3086934 Z" id="Fill-27" fill="#27574D"></path>
            <path d="M127.087377,10.6337302 C125.976714,11.7954588 125.422399,13.2504411 125.422399,14.9999722 C125.422399,16.7498734 125.976714,18.2046707 127.087377,19.3660293 C128.196746,20.527943 129.589747,21.1081597 131.265456,21.1081597 C132.94209,21.1081597 134.330836,20.527943 135.433914,19.3660293 C136.536807,18.2046707 137.087975,16.7498734 137.087975,14.9999722 C137.087975,13.2504411 136.536807,11.7954588 135.433914,10.6337302 C134.330836,9.47237156 132.94209,8.89104469 131.265456,8.89104469 C129.589747,8.89104469 128.196746,9.47237156 127.087377,10.6337302 M136.646522,9.6742263 C138.058025,11.122733 138.763499,12.8974266 138.763499,14.9999722 C138.763499,17.1027029 138.058025,18.8773965 136.646522,20.3259032 C135.235204,21.7734848 133.441269,22.4980157 131.265456,22.4980157 C129.075582,22.4980157 127.274246,21.7734848 125.862742,20.3259032 C124.451979,18.8773965 123.745765,17.1027029 123.745765,14.9999722 C123.745765,12.8974266 124.451979,11.122733 125.862742,9.6742263 C127.274246,8.22571961 129.075582,7.50211383 131.265456,7.50211383 C133.441269,7.50211383 135.235204,8.22571961 136.646522,9.6742263" id="Fill-29" fill="#27574D"></path>
        </g>
    </g>
</svg>