<?xml version="1.0" encoding="UTF-8"?>
<svg width="138px" height="25px" viewBox="0 0 138 25" version="1.1" xmlns="http://www.w3.org/2000/svg" xmlns:xlink="http://www.w3.org/1999/xlink">
    <title>logo</title>
    <defs>
        <linearGradient x1="50%" y1="0%" x2="50%" y2="100%" id="linearGradient-1">
            <stop stop-color="#254A72" offset="0%"></stop>
            <stop stop-color="#10243E" offset="100%"></stop>
        </linearGradient>
        <path d="M24.2526693,23.4912109 L24.2526693,22.6777344 C23.6328776,22.5559896 23.2178385,22.389974 23.0075521,22.1796875 C22.7972656,21.969401 22.6921224,21.4934896 22.6921224,20.7519531 L22.6921224,20.7519531 L22.6921224,11.6542969 C22.6921224,11.5104167 22.9909505,11.1534831 23.5886068,10.5834961 C24.186263,10.0135091 24.833724,9.72851562 25.5309896,9.72851562 C26.2946615,9.72851562 26.7982422,9.97753906 27.0417318,10.4755859 C27.2852214,10.9736328 27.4069661,11.6542969 27.4069661,12.5175781 L27.4069661,12.5175781 L27.4069661,20.7519531 C27.4069661,21.5266927 27.2796875,22.0219727 27.0251302,22.237793 C26.7705729,22.4536133 26.3444661,22.6002604 25.7468099,22.6777344 L25.7468099,22.6777344 L25.7468099,23.4912109 L33.6989583,23.4912109 L33.6989583,22.6777344 C33.0902344,22.5559896 32.6751953,22.389974 32.4538411,22.1796875 C32.232487,21.969401 32.1218099,21.4934896 32.1218099,20.7519531 L32.1218099,20.7519531 L32.1218099,11.6542969 C32.1218099,11.4440104 32.4455404,11.0704753 33.0930013,10.5336914 C33.7404622,9.99690755 34.357487,9.72851562 34.9440755,9.72851562 C35.6745443,9.72851562 36.1698242,9.97200521 36.4299154,10.4589844 C36.6900065,10.9459635 36.8200521,11.6321615 36.8200521,12.5175781 L36.8200521,12.5175781 L36.8200521,20.7519531 C36.8200521,21.515625 36.6983073,22.0053711 36.4548177,22.2211914 C36.2113281,22.4370117 35.7796875,22.5891927 35.1598958,22.6777344 L35.1598958,22.6777344 L35.1598958,23.4912109 L43.2282552,23.4912109 L43.2282552,22.6777344 C42.5863281,22.6113281 42.1380859,22.4702148 41.8835286,22.2543945 C41.6289714,22.0385742 41.5016927,21.5377604 41.5016927,20.7519531 L41.5016927,20.7519531 L41.5016927,12.2021484 C41.5016927,10.5530599 41.0451497,9.34667969 40.1320638,8.58300781 C39.2189779,7.81933594 38.1647786,7.4375 36.9694661,7.4375 C35.873763,7.4375 34.8610677,7.7639974 33.9313802,8.41699219 C33.3447917,8.81542969 32.7305339,9.40755208 32.0886068,10.1933594 L32.0886068,10.1933594 L31.8561849,10.1933594 C31.4798828,9.36328125 31.0814453,8.765625 30.6608724,8.40039062 C29.9082682,7.75846354 28.8513021,7.4375 27.489974,7.4375 C26.2835938,7.4375 25.1878906,7.80826823 24.2028646,8.54980469 C23.6716146,8.9593099 23.123763,9.53483073 22.5593099,10.2763672 L22.5593099,10.2763672 L22.5593099,7.8359375 L16.1179036,7.8359375 L16.1179036,8.66601562 C16.8373047,8.75455729 17.3242839,8.92610677 17.5788411,9.18066406 C17.8333984,9.43522135 17.9606771,9.91666667 17.9606771,10.625 L17.9606771,10.625 L17.9606771,20.6191406 C17.9606771,21.4270833 17.772526,21.9804688 17.396224,22.2792969 C17.1638021,22.4674479 16.7376953,22.6002604 16.1179036,22.6777344 L16.1179036,22.6777344 L16.1179036,23.4912109 L24.2526693,23.4912109 Z M46.1977214,23.9726562 L48.8705729,22.046875 C49.4792969,22.6223958 50.1322917,23.0872396 50.8295573,23.4414062 C51.5268229,23.7955729 52.3292318,23.9726562 53.2367839,23.9726562 C55.4503255,23.9726562 57.3013997,23.2117513 58.7900065,21.6899414 C60.2786133,20.1681315 61.0229167,18.0016276 61.0229167,15.1904297 C61.0229167,13.0100911 60.4390951,11.1728516 59.2714518,9.67871094 C58.1038086,8.18457031 56.5626302,7.4375 54.6479167,7.4375 C53.685026,7.4375 52.7885417,7.67545573 51.9584635,8.15136719 C51.5046875,8.41699219 51.0121745,8.80989583 50.4809245,9.33007812 L50.4809245,9.33007812 L50.4809245,0.514648438 L43.9067057,0.514648438 L43.9067057,1.34472656 C44.6039714,1.44433594 45.0798828,1.61865234 45.3344401,1.86767578 C45.5889974,2.11669922 45.716276,2.5953776 45.716276,3.30371094 L45.716276,3.30371094 L45.716276,23.9726562 L46.1977214,23.9726562 Z M52.8383464,22.8769531 C51.9086589,22.8769531 51.2445964,22.4895833 50.8461589,21.7148438 C50.6469401,21.3164062 50.5251953,20.8072917 50.4809245,20.1875 L50.4809245,20.1875 L50.4809245,11.2558594 C50.4809245,11.0234375 50.6995117,10.6388346 51.1366862,10.1020508 C51.5738607,9.56526693 52.1576823,9.296875 52.888151,9.296875 C54.1277344,9.296875 54.9605794,9.93880208 55.3866862,11.2226562 C55.812793,12.5065104 56.0258464,14.039388 56.0258464,15.8212891 C56.0258464,18.0680339 55.7851237,19.8056641 55.3036784,21.0341797 C54.8222331,22.2626953 54.0004557,22.8769531 52.8383464,22.8769531 Z M66.3498047,5.27929688 C67.0692057,5.27929688 67.6862305,5.02197266 68.2008789,4.50732422 C68.7155273,3.99267578 68.9728516,3.37011719 68.9728516,2.63964844 C68.9728516,1.90917969 68.7155273,1.28662109 68.2008789,0.771972656 C67.6862305,0.257324219 67.0692057,0 66.3498047,0 C65.6193359,0 64.9967773,0.257324219 64.4821289,0.771972656 C63.9674805,1.28662109 63.7101563,1.90917969 63.7101563,2.63964844 C63.7101563,3.37011719 63.9674805,3.99267578 64.4821289,4.50732422 C64.9967773,5.02197266 65.6193359,5.27929688 66.3498047,5.27929688 Z M70.3175781,23.4912109 L70.3175781,22.6777344 C69.7088542,22.5559896 69.2938151,22.389974 69.0724609,22.1796875 C68.8511068,21.969401 68.7404297,21.4934896 68.7404297,20.7519531 L68.7404297,20.7519531 L68.7404297,7.8359375 L62.2160156,7.8359375 L62.2160156,8.66601562 C62.9022135,8.78776042 63.3615234,8.97314453 63.5939453,9.22216797 C63.8263672,9.47119141 63.9425781,9.93880208 63.9425781,10.625 L63.9425781,10.625 L63.9425781,20.6191406 C63.9425781,21.3938802 63.7765625,21.9306641 63.4445313,22.2294922 C63.2231771,22.4287109 62.8136719,22.578125 62.2160156,22.6777344 L62.2160156,22.6777344 L62.2160156,23.4912109 L70.3175781,23.4912109 Z M76.673763,23.9394531 C78.079362,23.9394531 79.2691406,23.4248047 80.243099,22.3955078 C80.7964844,21.8089193 81.2723958,21.0507812 81.6708333,20.1210938 L81.6708333,20.1210938 L80.8573568,19.7226562 C80.5585286,20.2760417 80.2597005,20.7104492 79.9608724,21.0258789 C79.6620443,21.3413086 79.291276,21.4990234 78.8485677,21.4990234 C78.3394531,21.4990234 77.9742188,21.25 77.7528646,20.7519531 C77.6089844,20.4309896 77.5370443,20.0325521 77.5370443,19.5566406 L77.5370443,19.5566406 L77.5370443,9.33007812 L80.774349,9.33007812 L80.774349,7.8359375 L77.5370443,7.8359375 L77.5370443,2.09179688 L76.673763,2.09179688 C75.8326172,3.38671875 74.8973958,4.59863281 73.868099,5.72753906 C73.3479167,6.3030599 72.7945313,6.86197917 72.2079427,7.40429688 C71.7652344,7.78059896 71.3944661,8.10709635 71.095638,8.38378906 L71.095638,8.38378906 L71.095638,9.33007812 L72.8554036,9.33007812 L72.8554036,20.3535156 C72.8554036,21.8697917 73.4309245,22.9156901 74.5819661,23.4912109 C75.1796224,23.7900391 75.876888,23.9394531 76.673763,23.9394531 Z M85.985026,5.27929688 C86.7044271,5.27929688 87.3214518,5.02197266 87.8361003,4.50732422 C88.3507487,3.99267578 88.6080729,3.37011719 88.6080729,2.63964844 C88.6080729,1.90917969 88.3507487,1.28662109 87.8361003,0.771972656 C87.3214518,0.257324219 86.7044271,0 85.985026,0 C85.2545573,0 84.6319987,0.257324219 84.1173503,0.771972656 C83.6027018,1.28662109 83.3453776,1.90917969 83.3453776,2.63964844 C83.3453776,3.37011719 83.6027018,3.99267578 84.1173503,4.50732422 C84.6319987,5.02197266 85.2545573,5.27929688 85.985026,5.27929688 Z M89.9527995,23.4912109 L89.9527995,22.6777344 C89.3440755,22.5559896 88.9290365,22.389974 88.7076823,22.1796875 C88.4863281,21.969401 88.375651,21.4934896 88.375651,20.7519531 L88.375651,20.7519531 L88.375651,7.8359375 L81.851237,7.8359375 L81.851237,8.66601562 C82.5374349,8.78776042 82.9967448,8.97314453 83.2291667,9.22216797 C83.4615885,9.47119141 83.5777995,9.93880208 83.5777995,10.625 L83.5777995,10.625 L83.5777995,20.6191406 C83.5777995,21.3938802 83.4117839,21.9306641 83.0797526,22.2294922 C82.8583984,22.4287109 82.4488932,22.578125 81.851237,22.6777344 L81.851237,22.6777344 L81.851237,23.4912109 L89.9527995,23.4912109 Z M98.6,24.0058594 C100.879948,24.0058594 102.728255,23.1896159 104.144922,21.5571289 C105.561589,19.9246419 106.269922,17.9739583 106.269922,15.7050781 C106.269922,13.4029948 105.553288,11.4440104 104.12002,9.828125 C102.686751,8.21223958 100.846745,7.40429688 98.6,7.40429688 C96.397526,7.40429688 94.5685872,8.19563802 93.1131836,9.77832031 C91.6577799,11.3610026 90.9300781,13.3365885 90.9300781,15.7050781 C90.9300781,18.0625 91.655013,20.035319 93.1048828,21.6235352 C94.5547526,23.2117513 96.3864583,24.0058594 98.6,24.0058594 Z M98.6,22.9101562 C97.4489583,22.9101562 96.6797526,22.1741536 96.2923828,20.7021484 C96.0488932,19.7503255 95.9271484,18.0846354 95.9271484,15.7050781 C95.9271484,13.358724 96.0544271,11.6930339 96.3089844,10.7080078 C96.6963542,9.2360026 97.4655599,8.5 98.6166016,8.5 C99.6680339,8.5 100.3736,9.06722005 100.733301,10.2016602 C101.093001,11.3361003 101.272852,13.1705729 101.272852,15.7050781 C101.272852,18.250651 101.101302,20.0878906 100.758203,21.2167969 C100.415104,22.3457031 99.6957031,22.9101562 98.6,22.9101562 Z M118.254036,23.9726562 C119.460417,23.5963542 120.337533,23.3611654 120.885384,23.2670898 C121.433236,23.1730143 122.758594,23.0263672 124.861458,22.8271484 L124.861458,22.8271484 L124.861458,22.046875 C124.086719,21.9804688 123.566536,21.8116862 123.300911,21.5405273 C123.035286,21.2693685 122.902474,20.7796224 122.902474,20.0712891 L122.902474,20.0712891 L122.902474,7.8359375 L116.129036,7.8359375 L116.129036,8.66601562 C116.98125,8.69921875 117.54847,8.85693359 117.830697,9.13916016 C118.112923,9.42138672 118.254036,9.91666667 118.254036,10.625 L118.254036,10.625 L118.254036,20.2705078 C117.80026,20.7132161 117.423958,21.0286458 117.12513,21.2167969 C116.604948,21.5598958 116.073698,21.7314453 115.53138,21.7314453 C114.679167,21.7314453 114.10918,21.4492188 113.821419,20.8847656 C113.655404,20.5638021 113.572396,20.0602214 113.572396,19.3740234 L113.572396,19.3740234 L113.572396,7.8359375 L107.164193,7.8359375 L107.164193,8.66601562 C107.828255,8.80989583 108.276497,8.99251302 108.508919,9.21386719 C108.741341,9.43522135 108.857552,9.90559896 108.857552,10.625 L108.857552,10.625 L108.857552,19.2080078 C108.857552,20.9899089 109.330697,22.2294922 110.276986,22.9267578 C111.223275,23.6240234 112.244271,23.9726562 113.339974,23.9726562 C114.347135,23.9726562 115.31556,23.718099 116.245247,23.2089844 C116.776497,22.921224 117.446094,22.4287109 118.254036,21.7314453 L118.254036,21.7314453 L118.254036,23.9726562 Z M126.635612,23.9726562 C126.812695,23.6184896 126.97041,23.3666992 127.108757,23.2172852 C127.247103,23.0678711 127.410352,22.9931641 127.598503,22.9931641 C127.675977,22.9931641 127.739616,22.9986979 127.789421,23.0097656 C127.839225,23.0208333 127.969271,23.0651042 128.179557,23.1425781 L128.179557,23.1425781 L128.760612,23.3417969 C129.435742,23.5742188 130.002962,23.7374674 130.462272,23.831543 C130.921582,23.9256185 131.378125,23.9726562 131.831901,23.9726562 C133.658073,23.9726562 135.027702,23.4275716 135.940788,22.3374023 C136.853874,21.2472331 137.310417,20.0712891 137.310417,18.8095703 C137.310417,17.5146484 136.867708,16.4244792 135.982292,15.5390625 C135.451042,15.0188802 134.609896,14.4820964 133.458854,13.9287109 L133.458854,13.9287109 L131.599479,13.0322266 C130.702995,12.6005859 130.094271,12.180013 129.773307,11.7705078 C129.441276,11.3720703 129.27526,10.9736328 129.27526,10.5751953 C129.27526,10.0882161 129.460645,9.6344401 129.831413,9.21386719 C130.202181,8.79329427 130.763867,8.58300781 131.516471,8.58300781 C132.49043,8.58300781 133.342643,8.93164062 134.073112,9.62890625 C134.803581,10.3261719 135.329297,11.2503255 135.65026,12.4013672 L135.65026,12.4013672 L136.513542,12.4013672 L136.513542,7.48730469 L135.766471,7.48730469 C135.688997,7.69759115 135.592155,7.86083984 135.475944,7.97705078 C135.359733,8.09326172 135.163281,8.15136719 134.886589,8.15136719 C134.68737,8.15136719 134.183789,8.03238932 133.375846,7.79443359 C132.567904,7.55647786 131.804232,7.4375 131.084831,7.4375 C129.435742,7.4375 128.151888,7.91617839 127.233268,8.87353516 C126.314648,9.83089193 125.855339,10.968099 125.855339,12.2851562 C125.855339,13.3255208 126.148633,14.2275391 126.735221,14.9912109 C127.310742,15.7548828 128.262565,16.4632161 129.59069,17.1162109 L129.59069,17.1162109 L132.114128,18.3447266 C132.656445,18.6103516 133.049349,18.859375 133.292839,19.0917969 C133.735547,19.5234375 133.956901,20.0436198 133.956901,20.6523438 C133.956901,21.2942708 133.752148,21.8116862 133.342643,22.2045898 C132.933138,22.5974935 132.291211,22.7939453 131.416862,22.7939453 C130.465039,22.7939453 129.535352,22.4591471 128.627799,21.7895508 C127.720247,21.1199544 127.100456,19.9716797 126.768424,18.3447266 L126.768424,18.3447266 L125.822135,18.3447266 L125.822135,23.9726562 L126.635612,23.9726562 Z" id="path-2"></path>
    </defs>
    <g id="logo" stroke="none" stroke-width="1" fill="none" fill-rule="evenodd">
        <g id="Group-2" transform="translate(0.863281, 0.508789)" fill-rule="nonzero">
            <g id="ambitious">
                <use fill="#FFFFFF" xlink:href="#path-2"></use>
                <use fill="url(#linearGradient-1)" xlink:href="#path-2"></use>
            </g>
            <path d="M7.00585938,7.4375 C8.93164062,7.4375 10.5419922,7.80826823 11.8369141,8.54980469 C13.1207682,9.30240885 13.7626953,10.6858724 13.7626953,12.7001953 L13.7626953,12.7001953 L13.7626953,20.9345703 L13.770332,21.0763477 C13.7906966,21.2596289 13.8517904,21.4198893 13.9536133,21.5571289 C14.0808919,21.7286784 14.2220052,21.8144531 14.3769531,21.8144531 C14.5097656,21.8144531 14.6287435,21.7895508 14.7338867,21.7397461 C14.8390299,21.6899414 15.0022786,21.554362 15.2236328,21.3330078 L15.2236328,21.3330078 L15.7382812,22.046875 L15.5142626,22.2965133 C14.9097745,22.9392602 14.2484447,23.3983652 13.5302734,23.6738281 C13.0211589,23.8730469 12.484375,23.9726562 11.9199219,23.9726562 C10.9127604,23.9726562 10.1767578,23.679362 9.71191406,23.0927734 C9.44628906,22.7607422 9.25260417,22.2682292 9.13085938,21.6152344 C8.19010417,22.5559896 7.12760417,23.2200521 5.94335938,23.6074219 C5.22395833,23.8509115 4.515625,23.9726562 3.81835938,23.9726562 C2.88867188,23.9726562 2.01985677,23.6765951 1.21191406,23.0844727 C0.403971354,22.4923503 0,21.5709635 0,20.3203125 C0,18.7929688 0.736002604,17.5810547 2.20800781,16.6845703 C3.68001302,15.7880859 5.98763021,14.8860677 9.13085938,13.9785156 L9.13085938,13.9785156 L9.13085938,11.5048828 L9.12642076,11.2585687 C9.09387094,10.3754962 8.88229709,9.71329753 8.49169922,9.27197266 C8.06559245,8.79052734 7.31022135,8.54980469 6.22558594,8.54980469 C5.61686198,8.54980469 5.11604818,8.6632487 4.72314453,8.89013672 C4.33024089,9.11702474 4.13378906,9.40201823 4.13378906,9.74511719 C4.13378906,9.87792969 4.15592448,9.98860677 4.20019531,10.0771484 C4.24446615,10.1656901 4.3108724,10.2597656 4.39941406,10.359375 L4.39941406,10.359375 L4.59863281,10.5917969 L4.70913696,10.7365417 C4.81393433,10.8849182 4.90161133,11.0441895 4.97216797,11.2143555 C5.06624349,11.4412435 5.11328125,11.6819661 5.11328125,11.9365234 C5.11328125,12.5784505 4.90022786,13.0737305 4.47412109,13.4223633 C4.04801432,13.7709961 3.55273438,13.9453125 2.98828125,13.9453125 C2.33528646,13.9453125 1.77913411,13.7516276 1.31982422,13.3642578 C0.860514323,12.976888 0.630859375,12.4179688 0.630859375,11.6875 C0.630859375,10.3815104 1.24511719,9.34667969 2.47363281,8.58300781 C3.70214844,7.81933594 5.21289062,7.4375 7.00585938,7.4375 Z M9.08105469,15.1572266 L8.74591064,15.2462006 C7.97601318,15.4677277 7.29085286,15.7867025 6.69042969,16.203125 C5.52832031,17.0110677 4.94726562,18.0403646 4.94726562,19.2910156 C4.94726562,20.0325521 5.11604818,20.5942383 5.45361328,20.9760742 C5.79117839,21.3579102 6.1702474,21.5488281 6.59082031,21.5488281 C7.14420573,21.5488281 7.65885417,21.3828125 8.13476562,21.0507812 C8.40039062,20.8515625 8.71582031,20.5416667 9.08105469,20.1210938 L9.08105469,20.1210938 L9.08105469,15.1572266 Z" id="Combined-Shape" fill="#1576D8"></path>
        </g>
    </g>
</svg>